<svg xmlns="http://www.w3.org/2000/svg" width="272.718" height="251.347" viewBox="0 0 272.718 251.347">
  <g id="BookReading" transform="translate(0 20)">
    <path id="Path_153" data-name="Path 153" d="M437.486,402.347c-1.326,0-2.665-.021-3.979-.062l.03-.955c1.888.059,3.814.075,5.71.049l.013.956Q438.374,402.347,437.486,402.347Zm7.524-.222-.056-.954c1.89-.112,3.805-.268,5.691-.466l.1.95C448.844,401.855,446.915,402.013,445.01,402.125Zm-17.248-.149c-1.906-.146-3.833-.337-5.726-.57l.117-.948c1.879.23,3.79.42,5.682.565Zm28.689-1.051-.143-.944c1.878-.285,3.771-.616,5.624-.984l.186.937C460.25,400.305,458.344,400.639,456.451,400.926Zm-40.108-.35c-1.883-.319-3.784-.686-5.65-1.091l.2-.934c1.851.4,3.737.766,5.606,1.083Zm51.392-1.893-.229-.928c1.844-.456,3.7-.96,5.511-1.5l.272.917C471.46,397.716,469.592,398.224,467.734,398.683Zm-62.634-.548c-1.847-.491-3.706-1.032-5.525-1.607l.288-.911c1.805.571,3.65,1.107,5.483,1.594Zm73.664-2.724-.314-.9c1.789-.622,3.589-1.294,5.349-2l.355.888C482.381,394.106,480.567,394.784,478.764,395.411Zm-84.648-.749c-1.794-.659-3.6-1.371-5.365-2.115l.371-.881c1.752.738,3.543,1.444,5.324,2.1Zm95.318-3.521-.4-.87c1.718-.781,3.445-1.614,5.133-2.477l.435.851c-1.7.869-3.441,1.709-5.172,2.5Zm-105.943-.953c-1.725-.822-3.456-1.7-5.144-2.6l.45-.843c1.676.9,3.394,1.763,5.105,2.579Zm116.169-4.274-.473-.83c1.648-.94,3.293-1.929,4.888-2.938l.51.807c-1.608,1.017-3.265,2.014-4.925,2.96Zm-126.331-1.155c-1.64-.976-3.283-2-4.882-3.058l.526-.8c1.587,1.045,3.217,2.066,4.845,3.035Zm136.043-4.988-.547-.783c1.552-1.084,3.1-2.219,4.6-3.374l.582.758C512.495,377.535,510.934,378.679,509.371,379.771Zm-145.66-1.346c-1.542-1.12-3.083-2.294-4.58-3.489l.6-.747c1.485,1.186,3.015,2.35,4.545,3.462Zm154.776-5.66-.616-.731c1.446-1.22,2.885-2.492,4.278-3.78l.648.7c-1.4,1.3-2.854,2.579-4.311,3.809Zm-163.771-1.522c-1.437-1.258-2.864-2.567-4.242-3.889l.662-.69c1.368,1.313,2.784,2.612,4.21,3.861Zm172.216-6.289-.68-.671c1.333-1.351,2.652-2.749,3.919-4.155l.71.639c-1.277,1.417-2.605,2.826-3.949,4.187Zm-180.517-1.678c-1.318-1.386-2.62-2.819-3.869-4.258l.721-.626c1.24,1.428,2.531,2.85,3.84,4.225Zm188.22-6.871-.738-.607c1.2-1.466,2.39-2.978,3.526-4.5l.765.572C537.043,353.4,535.848,354.927,534.635,356.4Zm-195.76-1.814c-1.184-1.5-2.349-3.04-3.464-4.59l.776-.558c1.107,1.538,2.263,3.07,3.438,4.555Zm202.655-7.405-.791-.537c1.066-1.569,2.11-3.184,3.1-4.8l.815.5c-1,1.629-2.053,3.257-3.127,4.837Zm-209.369-1.925c-1.041-1.6-2.06-3.239-3.029-4.883l.823-.485c.962,1.632,1.973,3.262,3.007,4.846Zm215.4-7.89-.836-.462c.918-1.66,1.809-3.366,2.65-5.068l.857.424c-.848,1.715-1.747,3.433-2.671,5.106ZM326.329,335.36c-.891-1.685-1.755-3.413-2.569-5.137l.864-.408c.807,1.711,1.665,3.426,2.549,5.1Zm226.333-8.322-.875-.384c.762-1.739,1.493-3.52,2.174-5.294l.892.342c-.686,1.787-1.423,3.582-2.19,5.335Zm-231.231-2.062c-.733-1.758-1.434-3.557-2.085-5.347l.9-.327c.646,1.777,1.342,3.561,2.069,5.306Zm235.363-8.7-.907-.3c.6-1.8,1.159-3.634,1.672-5.46l.92.258c-.518,1.84-1.085,3.691-1.686,5.5ZM317.5,314.177c-.569-1.821-1.1-3.682-1.588-5.531l.924-.243c.481,1.835,1.012,3.681,1.576,5.489Zm242.4-8.981-.931-.216c.428-1.842.819-3.723,1.163-5.59l.94.173c-.346,1.882-.741,3.777-1.172,5.634Zm-245.323-2.147c-.4-1.867-.759-3.768-1.072-5.653l.943-.157c.311,1.871.668,3.758,1.064,5.61Zm247.406-9.167-.947-.13c.257-1.872.474-3.78.645-5.673l.952.086c-.173,1.908-.391,3.831-.65,5.717ZM312.7,291.7c-.225-1.892-.41-3.819-.55-5.727l.953-.07c.138,1.894.322,3.806.546,5.684Zm250.329-9.275-.955-.043c.085-1.894.128-3.814.128-5.708h.956c0,1.909-.043,3.844-.129,5.751Zm-251.168-2.2c-.033-1.172-.049-2.367-.049-3.553q0-1.1.019-2.2l.956.017q-.019,1.091-.019,2.185c0,1.176.017,2.363.049,3.526ZM562.2,275.34c-.02-1.895-.083-3.815-.188-5.708l.954-.053c.106,1.908.17,3.843.19,5.751Zm-249.183-6.558-.954-.06c.119-1.909.284-3.838.489-5.733l.95.1C313.3,264.974,313.133,266.887,313.014,268.783Zm248.548-4.843c-.191-1.884-.428-3.79-.706-5.666l.945-.139c.279,1.89.518,3.811.711,5.709Zm-247.319-6.507-.945-.146c.293-1.891.633-3.8,1.011-5.664l.937.189c-.375,1.854-.713,3.745-1,5.621Zm245.648-4.786c-.364-1.864-.776-3.741-1.223-5.578l.929-.226c.45,1.851.865,3.742,1.232,5.62Zm-243.384-6.4-.927-.232c.464-1.851.978-3.717,1.528-5.547l.915.275C317.478,242.554,316.967,244.406,316.507,246.243Zm240.684-4.69c-.533-1.82-1.115-3.65-1.731-5.441l.9-.311c.621,1.8,1.208,3.65,1.745,5.483ZM319.8,235.294l-.9-.317c.635-1.807,1.321-3.622,2.038-5.4l.886.358c-.712,1.76-1.392,3.561-2.023,5.354Zm233.683-4.537c-.7-1.759-1.444-3.524-2.219-5.246l.872-.392c.782,1.736,1.534,3.515,2.236,5.287Zm-229.393-6.07-.868-.4c.8-1.738,1.648-3.481,2.525-5.181l.849.438C325.721,221.232,324.878,222.962,324.086,224.687ZM548.8,220.369c-.855-1.687-1.762-3.378-2.694-5.024l.832-.471c.939,1.659,1.852,3.363,2.714,5.063Zm-219.471-5.844-.828-.477c.953-1.655,1.959-3.313,2.988-4.925l.805.514c-1.022,1.6-2.02,3.245-2.966,4.887Zm213.856-4.078c-1.01-1.608-2.067-3.209-3.143-4.76l.785-.545c1.084,1.563,2.15,3.177,3.167,4.8Zm-207.7-5.554-.781-.551c1.1-1.563,2.254-3.12,3.424-4.629l.755.586C337.72,201.8,336.576,203.342,335.483,204.892Zm201.2-3.819c-1.152-1.508-2.351-3.008-3.566-4.457l.733-.614c1.224,1.46,2.432,2.971,3.593,4.491Zm-194.2-5.208-.728-.62c1.236-1.452,2.525-2.9,3.83-4.3l.7.652C344.991,192.989,343.712,194.424,342.485,195.865Zm186.871-3.54c-1.284-1.4-2.616-2.782-3.958-4.116l.674-.678c1.352,1.344,2.694,2.739,3.987,4.147Zm-179.08-4.809-.668-.683c1.367-1.337,2.781-2.659,4.2-3.928l.637.713c-1.412,1.26-2.815,2.572-4.171,3.9Zm170.982-3.24c-1.407-1.276-2.86-2.535-4.317-3.741l.609-.736c1.469,1.215,2.932,2.483,4.35,3.769ZM358.79,179.913l-.6-.741c1.478-1.2,3.006-2.391,4.54-3.529l.569.768C361.773,177.54,360.257,178.718,358.79,179.913Zm153.667-2.918c-1.518-1.143-3.08-2.265-4.642-3.334l.539-.789c1.575,1.077,3.148,2.207,4.678,3.359Zm-144.5-3.876-.533-.793c1.582-1.064,3.211-2.107,4.841-3.1l.5.817C371.143,171.029,369.527,172.063,367.957,173.119Zm135.068-2.576c-1.615-1-3.273-1.974-4.929-2.9l.465-.835c1.669.93,3.34,1.912,4.967,2.918ZM377.7,167.193l-.459-.839c1.674-.916,3.39-1.8,5.1-2.641l.42.859C381.063,165.4,379.36,166.284,377.7,167.193Zm115.338-2.214c-1.7-.847-3.443-1.666-5.177-2.433l.386-.874c1.748.773,3.5,1.6,5.218,2.451Zm-105.1-2.793-.38-.877c1.749-.758,3.538-1.485,5.317-2.161l.339.894c-1.766.671-3.541,1.392-5.277,2.144Zm94.638-1.832c-1.769-.686-3.581-1.341-5.383-1.946l.3-.906c1.816.61,3.641,1.269,5.424,1.961ZM398.6,158.139l-.3-.908c1.816-.6,3.669-1.156,5.507-1.666l.255.921c-1.824.506-3.663,1.062-5.465,1.653Zm73.141-1.421c-1.823-.52-3.682-1-5.525-1.438l.219-.93c1.858.438,3.731.926,5.569,1.449Zm-62.14-1.632-.213-.932c1.862-.425,3.759-.813,5.637-1.152l.17.94c-1.865.337-3.747.721-5.594,1.143Zm51.028-.988c-1.861-.349-3.757-.66-5.634-.924l.133-.946c1.892.266,3.8.579,5.678.931Zm-39.793-1.04-.127-.947c1.892-.252,3.816-.465,5.718-.63l.083.952c-1.888.165-3.8.375-5.675.626Zm28.487-.548c-1.882-.177-3.8-.314-5.7-.406l.047-.955c1.911.093,3.841.23,5.738.409Zm-17.114-.444-.04-.955c1.756-.073,3.547-.111,5.321-.111h.433l0,.956h-.43c-1.761,0-3.538.038-5.281.11Z" transform="translate(-296.316 -171)" fill="#8d8d8d"/>
    <path id="Path_154" data-name="Path 154" d="M608.349,666.627V614.368a2.765,2.765,0,0,1,2.761-2.761h6.27a2.765,2.765,0,0,1,2.761,2.761v52.259a2.765,2.765,0,0,1-2.761,2.761h-6.27A2.765,2.765,0,0,1,608.349,666.627Z" transform="translate(-466.878 -441)" fill="#00182e"/>
    <path id="Path_155" data-name="Path 155" d="M579.156,666.627V614.368a2.764,2.764,0,0,1,2.761-2.761h6.27a2.764,2.764,0,0,1,2.761,2.761v52.259a2.765,2.765,0,0,1-2.761,2.761h-6.27A2.764,2.764,0,0,1,579.156,666.627Z" transform="translate(-450.087 -440.539)" fill="#00182e"/>
    <rect id="Rectangle_256" data-name="Rectangle 256" width="30.485" height="33.775" rx="6" transform="translate(125.924 161.182)" fill="#00182e"/>
    <path id="Path_156" data-name="Path 156" d="M443.91,377.831s-12.812,5.952-23.654,9.9c-6.728-15.188-16.42-14.619-16.42-14.619l-5.876,4.046,1.06,6.069-.289,9.922-1.541,5.2,2.212.4,1.249.227.188-.17a12.84,12.84,0,0,0-.374,3.783l55.584-8.67S454.121,384.96,443.91,377.831Z" transform="translate(-345.423 -298.753)" fill="#e6e6e6"/>
    <rect id="Rectangle_257" data-name="Rectangle 257" width="11.368" height="57.356" rx="5.684" transform="matrix(-0.594, -0.804, 0.804, -0.594, 87.315, 164.288)" fill="#0084ff"/>
    <rect id="Rectangle_258" data-name="Rectangle 258" width="11.368" height="57.356" rx="5.684" transform="matrix(0.883, -0.469, 0.469, 0.883, 145.894, 125.526)" fill="#0084ff"/>
    <path id="Path_157" data-name="Path 157" d="M642.5,503.673l-9.046,6a2.7,2.7,0,0,1-3.7-.923l-9.99-18.824a2.7,2.7,0,0,1,1.308-3.58l6.157-3.267a2.7,2.7,0,0,1,3.7.923l12.878,16.095A2.7,2.7,0,0,1,642.5,503.673Z" transform="translate(-473.292 -361.795)" fill="#c4e3ff"/>
    <path id="Path_158" data-name="Path 158" d="M527.615,497.894l5.879,7.808a2.549,2.549,0,0,0,3.6.114l15.538-14.584a2.549,2.549,0,0,0,.114-3.6l-4.291-4.572a2.549,2.549,0,0,0-3.6-.114l-17.127,11.348A2.549,2.549,0,0,0,527.615,497.894Z" transform="translate(-420.044 -361.53)" fill="#ccc"/>
    <rect id="Rectangle_259" data-name="Rectangle 259" width="33.587" height="65.624" rx="6" transform="translate(124.373 120.64)" fill="#c4e3ff"/>
    <circle id="Ellipse_48" data-name="Ellipse 48" cx="22.736" cy="22.736" r="22.736" transform="translate(118.264 71.218)" fill="#0084ff"/>
    <path id="Path_159" data-name="Path 159" d="M605.541,417.528a7.819,7.819,0,0,1-4.5-1.072,3.454,3.454,0,0,1-1.359-2.58,2.324,2.324,0,0,1,.79-1.908,3,3,0,0,1,2.837-.408l-1.147-8.38.842-.115,1.347,9.852-.7-.322a2.571,2.571,0,0,0-2.628.023,1.493,1.493,0,0,0-.49,1.23,2.611,2.611,0,0,0,1.011,1.924,7.027,7.027,0,0,0,4.021.908Z" transform="translate(-461.89 -315.983)" fill="#2f2e41"/>
    <rect id="Rectangle_260" data-name="Rectangle 260" width="4.576" height="0.85" transform="translate(131.534 87.919)" fill="#2f2e41"/>
    <rect id="Rectangle_261" data-name="Rectangle 261" width="4.576" height="0.85" transform="translate(145.978 87.919)" fill="#2f2e41"/>
    <path id="Path_160" data-name="Path 160" d="M560.835,345.833c-3.685-.42-6.539-3.951-6.852-7.533-.373-4.262,2.109-8.31,5.514-10.7a23.541,23.541,0,0,1,12.29-3.775,33.777,33.777,0,0,1,23.088,7.61c3.216,2.671,6.221,6.074,7.359,10.185a9.865,9.865,0,0,1-2.687,10.114,6.787,6.787,0,0,1-5.208,1.6,12.944,12.944,0,0,1-6.062-2.7c-3.461-2.516-6.3-6.022-10.519-7.337-3.092-.964-7.1-.115-8.993,2.68a5.088,5.088,0,0,0-.813,2.132.66.66,0,0,0,.445.784.641.641,0,0,0,.784-.445c.5-3.522,4.826-4.836,7.865-4.031,4.43,1.173,7.4,5.126,11.039,7.638a13.416,13.416,0,0,0,6.429,2.566,7.983,7.983,0,0,0,5.609-1.723,10.908,10.908,0,0,0,3.606-10.466c-.8-4.4-3.755-8.166-7-11.083a35.025,35.025,0,0,0-23.936-8.842,26.188,26.188,0,0,0-13.048,3.4,14.25,14.25,0,0,0-7.034,10.634,10.039,10.039,0,0,0,5.412,9.792,8.472,8.472,0,0,0,2.715.766c.813.093.807-1.182,0-1.274Z" transform="translate(-434.854 -269.646)" fill="#002446"/>
    <path id="Path_161" data-name="Path 161" d="M399.3,398.209l2.7-.867c.289-.554-.24-.2.012-.737,6.824-14.559.517-23.491.517-23.491l-4.879,3.359c-.012-.028-.022-.056-.034-.084,0,0-.867-1.927-2.216-.482a34.2,34.2,0,0,1-.482,23.12l5.491,2.5,2.119-2.5.048-.241-3.793-.345Z" transform="translate(-344.118 -298.756)" fill="#ccc"/>
    <path id="Path_162" data-name="Path 162" d="M476.16,472.408c-21.675-4.817-41.856,5.154-41.856,5.154l-.055-.049-8.037-7.176-31.4-51.249,7.658.048c21.289-12.716,51.249-10.982,51.249-10.982C466.623,422.8,476.16,472.408,476.16,472.408Z" transform="translate(-344.053 -318.865)" fill="#00182e"/>
    <path id="Path_163" data-name="Path 163" d="M434.248,492.425l-8.037-7.176L394.807,434l7.658.048S432.989,474.362,434.248,492.425Z" transform="translate(-344.053 -333.776)" opacity="0.1"/>
    <ellipse id="Ellipse_49" data-name="Ellipse 49" cx="12.427" cy="7.899" rx="12.427" ry="7.899" transform="translate(77.211 107.2) rotate(-17.052)" fill="#0084ff"/>
    <path id="Path_164" data-name="Path 164" d="M325.07,358.167c-1.731,6.4-7.658,10.36-7.658,10.36s-3.122-6.41-1.391-12.808,7.658-10.36,7.658-10.36S326.8,351.77,325.07,358.167Z" transform="translate(-300 -273.579)" fill="#c4e3ff"/>
    <path id="Path_165" data-name="Path 165" d="M300.262,358.167c1.731,6.4,7.658,10.36,7.658,10.36s3.122-6.41,1.391-12.808-7.658-10.36-7.658-10.36S298.532,351.77,300.262,358.167Z" transform="translate(-290.937 -273.579)" fill="#c4e3ff"/>
    <path id="Path_166" data-name="Path 166" d="M290.887,365.486c4.749,4.623,5.329,11.729,5.329,11.729s-7.119-.389-11.868-5.012-5.329-11.729-5.329-11.729S286.138,360.863,290.887,365.486Z" transform="translate(-279.019 -282.272)" fill="#098aff"/>
    <path id="Path_167" data-name="Path 167" d="M324.829,365.486c-4.749,4.623-5.329,11.729-5.329,11.729s7.119-.389,11.868-5.012,5.329-11.729,5.329-11.729S329.578,360.863,324.829,365.486Z" transform="translate(-302.303 -282.272)" fill="#098aff"/>
    <path id="Path_168" data-name="Path 168" d="M886.07,528.167c-1.731,6.4-7.658,10.36-7.658,10.36s-3.122-6.41-1.391-12.808,7.658-10.359,7.658-10.359S887.8,521.77,886.07,528.167Z" transform="translate(-622.677 -371.359)" fill="#c4e3ff"/>
    <path id="Path_169" data-name="Path 169" d="M861.262,528.167c1.73,6.4,7.658,10.36,7.658,10.36s3.122-6.41,1.391-12.808-7.658-10.359-7.658-10.359S859.532,521.77,861.262,528.167Z" transform="translate(-613.614 -371.359)" fill="#c4e3ff"/>
    <path id="Path_170" data-name="Path 170" d="M851.887,535.486c4.749,4.623,5.329,11.729,5.329,11.729s-7.119-.389-11.868-5.012-5.329-11.729-5.329-11.729S847.138,530.863,851.887,535.486Z" transform="translate(-601.695 -380.053)" fill="#098aff"/>
    <path id="Path_171" data-name="Path 171" d="M885.829,535.486c-4.749,4.623-5.329,11.729-5.329,11.729s7.119-.389,11.868-5.012,5.329-11.729,5.329-11.729S890.578,530.863,885.829,535.486Z" transform="translate(-624.979 -380.053)" fill="#098aff"/>
  </g>
</svg>
