<svg xmlns="http://www.w3.org/2000/svg" width="61.798" height="41.625" viewBox="0 0 61.798 41.625">
  <g id="Group_96" data-name="Group 96" transform="translate(-74.101 -815.429)">
    <g id="Group_88" data-name="Group 88" transform="translate(-697.899 463.325)">
      <path id="Path_179" data-name="Path 179" d="M332.7,368.371c-3.109,11.495-13.76,18.613-13.76,18.613s-5.609-11.517-2.5-23.012,13.76-18.613,13.76-18.613S335.806,356.877,332.7,368.371Z" transform="translate(484.346 6.744)" fill="#c4e3ff"/>
      <path id="Path_180" data-name="Path 180" d="M300.679,368.371c3.109,11.495,13.76,18.613,13.76,18.613s5.609-11.517,2.5-23.012-13.76-18.613-13.76-18.613S297.569,356.877,300.679,368.371Z" transform="translate(488.076 6.744)" fill="#c4e3ff"/>
      <path id="Path_181" data-name="Path 181" d="M300.343,369.478c8.532,8.306,9.575,21.074,9.575,21.074s-12.792-.7-21.324-9-9.575-21.074-9.575-21.074S291.81,361.172,300.343,369.478Z" transform="translate(492.981 3.167)" fill="#098aff"/>
      <path id="Path_182" data-name="Path 182" d="M329.075,369.478c-8.532,8.306-9.575,21.074-9.575,21.074s12.792-.7,21.324-9,9.575-21.074,9.575-21.074S337.607,361.172,329.075,369.478Z" transform="translate(483.399 3.167)" fill="#098aff"/>
    </g>
  </g>
</svg>
