<svg id="undraw_happy_music_g6wc" xmlns="http://www.w3.org/2000/svg" width="483.645" height="421.026" viewBox="0 0 483.645 421.026">
  <path id="Path_323" data-name="Path 323" d="M483.644,747.259l-346.215,5.219L0,728.121H214.545Z" transform="translate(0 -331.452)" fill="#e6e6e6"/>
  <circle id="Ellipse_62" data-name="Ellipse 62" cx="55.383" cy="55.383" r="55.383" transform="translate(343.302 0)" fill="#c8e1ff"/>
  <path id="Path_324" data-name="Path 324" d="M335.954,784.351s.81-16.975,17.417-15" transform="translate(-237.98 -384.787)" fill="#3f3d56"/>
  <circle id="Ellipse_63" data-name="Ellipse 63" cx="8.312" cy="8.312" r="8.312" transform="translate(84.97 367.779)" fill="#2188ff"/>
  <rect id="Rectangle_164" data-name="Rectangle 164" width="2.346" height="16.424" transform="translate(91.929 389.095)" fill="#3f3d56"/>
  <path id="Path_325" data-name="Path 325" d="M838.4,789.673s.81-16.975,17.417-15" transform="translate(-466.702 -387.21)" fill="#3f3d56"/>
  <circle id="Ellipse_64" data-name="Ellipse 64" cx="8.312" cy="8.312" r="8.312" transform="translate(358.695 370.679)" fill="#2188ff"/>
  <rect id="Rectangle_165" data-name="Rectangle 165" width="2.346" height="16.424" transform="translate(365.654 391.995)" fill="#3f3d56"/>
  <path id="Path_326" data-name="Path 326" d="M911.851,795s.81-16.975,17.417-15" transform="translate(-500.137 -389.633)" fill="#3f3d56"/>
  <circle id="Ellipse_65" data-name="Ellipse 65" cx="8.312" cy="8.312" r="8.312" transform="translate(398.71 372.586)" fill="#2188ff"/>
  <rect id="Rectangle_166" data-name="Rectangle 166" width="2.346" height="16.424" transform="translate(405.669 394.894)" fill="#3f3d56"/>
  <path id="Path_327" data-name="Path 327" d="M456.243,769.447s.81-16.975,17.417-15" transform="translate(-292.737 -378.003)" fill="#3f3d56"/>
  <circle id="Ellipse_66" data-name="Ellipse 66" cx="8.312" cy="8.312" r="8.312" transform="translate(150.502 359.66)" fill="#2188ff"/>
  <rect id="Rectangle_167" data-name="Rectangle 167" width="2.346" height="16.424" transform="translate(157.461 380.976)" fill="#3f3d56"/>
  <path id="Path_328" data-name="Path 328" d="M229.5,774.77s.81-16.975,17.417-15" transform="translate(-189.522 -380.426)" fill="#3f3d56"/>
  <circle id="Ellipse_67" data-name="Ellipse 67" cx="8.312" cy="8.312" r="8.312" transform="translate(26.977 362.56)" fill="#2188ff"/>
  <rect id="Rectangle_168" data-name="Rectangle 168" width="2.346" height="16.424" transform="translate(33.937 383.876)" fill="#3f3d56"/>
  <circle id="Ellipse_68" data-name="Ellipse 68" cx="90.558" cy="90.558" r="90.558" transform="translate(150.387 183.731)" fill="#002a5b"/>
  <path id="Path_329" data-name="Path 329" d="M486.851,542.056a23.964,23.964,0,0,1,36.783,0,26.635,26.635,0,1,0-36.783,0Z" transform="translate(-302.918 -260.498)" fill="#fff"/>
  <path id="Path_330" data-name="Path 330" d="M618.856,542.056a23.964,23.964,0,0,1,36.783,0,26.635,26.635,0,1,0-36.783,0Z" transform="translate(-363.009 -260.498)" fill="#fff"/>
  <circle id="Ellipse_69" data-name="Ellipse 69" cx="9.162" cy="9.162" r="9.162" transform="translate(184.077 244.061)" fill="#3f3d56"/>
  <circle id="Ellipse_70" data-name="Ellipse 70" cx="9.162" cy="9.162" r="9.162" transform="translate(255.988 244.061)" fill="#3f3d56"/>
  <circle id="Ellipse_71" data-name="Ellipse 71" cx="10.654" cy="10.654" r="10.654" transform="translate(165.036 286.275)" fill="#ff6584"/>
  <circle id="Ellipse_72" data-name="Ellipse 72" cx="10.654" cy="10.654" r="10.654" transform="translate(287.557 286.275)" fill="#ff6584"/>
  <path id="Path_331" data-name="Path 331" d="M428.266,505.926l-7.99,34.625,13.317-13.317Z" transform="translate(-191.316 -230.305)" fill="#ff6584"/>
  <path id="Path_332" data-name="Path 332" d="M485.842,705.834l-9.072-7.614.211,7.614h-2.818l-.225-8.051-12.248,8.051h-5.128l17.284-11.361-.67-23.856-.5-18.017,2.811-.077L476,670.618l.669,23.834,13.558,11.382Z" transform="translate(-207.835 -297.039)" fill="#3f3d56"/>
  <path id="Path_333" data-name="Path 333" d="M407.617,705.834l-9.072-7.614.211,7.614h-2.81l-.226-8.051-12.248,8.051h-5.128l17.277-11.361-.669-23.856-.5-18.017,2.817-.077.507,18.094.662,23.834L412,705.834Z" transform="translate(-172.228 -297.039)" fill="#3f3d56"/>
  <path id="Path_334" data-name="Path 334" d="M576.354,379.714c-2.485,0-4.677,1.93-6.142,4.895-1.292-4.458-4.006-7.558-7.175-7.558a4.812,4.812,0,0,0-.64.107c-1.218-4.76-4.05-8.1-7.351-8.1-4.413,0-7.99,5.962-7.99,13.317s3.577,13.317,7.99,13.317a4.821,4.821,0,0,0,.64-.107c1.218,4.76,4.05,8.1,7.351,8.1,2.485,0,4.677-1.93,6.142-4.895,1.292,4.458,4.006,7.558,7.175,7.558,4.413,0,7.99-5.962,7.99-13.317S580.767,379.714,576.354,379.714Z" transform="translate(-334.076 -202.642)" fill="#3f3d56"/>
  <path id="Path_335" data-name="Path 335" d="M0,0H0A26.635,26.635,0,0,1,26.635,26.635V39.952A26.635,26.635,0,0,1,0,66.587H0Z" transform="translate(155.944 308.607) rotate(180)" fill="#2188ff"/>
  <path id="Path_336" data-name="Path 336" d="M598.3,444.248h0a26.635,26.635,0,0,1,26.635,26.635V484.2A26.635,26.635,0,0,1,598.3,510.835h0V444.248Z" transform="translate(-272.357 -202.229)" fill="#2188ff"/>
  <path id="Path_337" data-name="Path 337" d="M610.541,475.817h-4.226a97.2,97.2,0,1,0-194.394,0H407.7a101.423,101.423,0,1,1,202.846,0Z" transform="translate(-270.638 -205.07)" fill="#2188ff"/>
  <path id="Path_338" data-name="Path 338" d="M131.69,368Z" transform="translate(-59.947 -167.518)" fill="#3f3d56"/>
  <path id="Path_339" data-name="Path 339" d="M312.931,406.346v0l-1.985-.827-8.377-3.541-3-1.269-.23.582h0L295.3,411.473l11.352,4.8.06.054-.765,1.8a3.2,3.2,0,0,0-.267.521,2.5,2.5,0,0,0,1.433,3.078c.957.379,2.167-.411,2.7-1.764.529-1.335.012-3.03-.92-3.44v0l-1.985-.827-6.792-2.64,3.881-9.8-.575-.228-3.882,9.8-.84-.326,3.9-9.84.1.044,7.983,3.379.06.054-.765,1.8a3.189,3.189,0,0,0-.267.521,2.5,2.5,0,0,0,1.433,3.078c.957.379,2.167-.411,2.7-1.764C314.38,408.451,313.863,406.756,312.931,406.346Z" transform="translate(-219.475 -217.048)" fill="#3f3d56"/>
  <path id="Path_340" data-name="Path 340" d="M382.816,444.972c-4.121-2.356-3.3-7.526-3.3-7.526-.1-3.359-2.879-2.883-2.879-2.883l-1.01.231a3.066,3.066,0,0,0-1.5-.278l-1.536.258c3.5.822,3.211,3.748,3.211,3.748l.49,3.422-9.166-3.7,1.053-2.482a4.429,4.429,0,0,0,.371-.723,3.477,3.477,0,0,0-1.99-4.275c-1.329-.526-3.009.57-3.754,2.45-.734,1.854-.017,4.208,1.278,4.777v0l2.758,1.148.02-.065Zm-4.655-6.012.294,3.275a7.554,7.554,0,0,1-1.376-5.016,3.172,3.172,0,0,0-.614-1.757,3.721,3.721,0,0,1,1.7,3.5Z" transform="translate(-250.069 -230.672)" fill="#3f3d56"/>
  <path id="Path_341" data-name="Path 341" d="M255.656,358.562v0l-2.757-1.148-11.525-4.48,2.909-2.588a3.674,3.674,0,0,1,5.021-.823l-.9-1.342s-1.7-2.247-4.072.13c0,0-2.939,4.333-7.556,3.228l15.766,6.673.083.075-1.062,2.505a4.426,4.426,0,0,0-.371.723,3.477,3.477,0,0,0,1.99,4.275c1.329.526,3.009-.57,3.754-2.45C257.668,361.485,256.951,359.131,255.656,358.562Z" transform="translate(-192.832 -192.699)" fill="#3f3d56"/>
  <path id="Path_342" data-name="Path 342" d="M335.637,322.993l-1.062,2.505a4.432,4.432,0,0,0-.371.723,3.477,3.477,0,0,0,1.99,4.275c1.329.526,3.009-.57,3.754-2.45.734-1.854.017-4.208-1.278-4.777v0l-2.757-1.148-9.433-3.667,5.39-13.609-.8-.316-5.392,13.614-1.166-.453,5.413-13.667.143.06,11.088,4.693.083.075-1.062,2.5a4.435,4.435,0,0,0-.371.723,3.477,3.477,0,0,0,1.99,4.275c1.329.526,3.009-.57,3.754-2.45.734-1.854.017-4.208-1.278-4.777v0l-2.757-1.148-11.269-4.764h0l-.365-.154-4.17-1.763-5.922,14.953,15.766,6.673ZM325.39,302.1Z" transform="translate(-230.621 -171.793)" fill="#3f3d56"/>
  <path id="Path_343" data-name="Path 343" d="M230.008,184.239l0,0-4.747-1.977-19.839-7.712,5.007-4.455a6.325,6.325,0,0,1,8.644-1.416l-1.554-2.309s-2.921-3.867-7.01.224c0,0-5.059,7.459-13.006,5.557l27.141,11.487.142.129-1.829,4.312a7.629,7.629,0,0,0-.638,1.245c-1.281,3.235,1.139,6.453,3.426,7.359s5.181-.982,6.462-4.217C233.472,189.273,232.237,185.219,230.008,184.239Z" transform="translate(-174.955 -109.619)" fill="#3f3d56"/>
  <path id="Path_344" data-name="Path 344" d="M243.344,290.827c-9.852-5.633-7.881-17.994-7.881-17.994-.248-8.03-6.883-6.894-6.883-6.894l-2.415.551a7.331,7.331,0,0,0-3.591-.664l-3.673.618c8.364,1.965,7.677,8.962,7.677,8.962l1.172,8.181-21.916-8.841,2.516-5.933a10.6,10.6,0,0,0,.886-1.729c1.779-4.493-1.581-8.962-4.758-10.22s-7.2,1.364-8.975,5.857c-1.755,4.432-.04,10.062,3.056,11.422l0,.005,6.593,2.746.049-.155Zm-11.129-14.375.705,7.858a18,18,0,0,1-3.292-12.019,7.586,7.586,0,0,0-1.468-4.2c4.754,2.845,4.055,8.362,4.055,8.362Z" transform="translate(-173.724 -151.425)" fill="#3f3d56"/>
</svg>
