<svg xmlns="http://www.w3.org/2000/svg" width="230" height="230" viewBox="0 0 230 230">
  <g id="Group_91" data-name="Group 91" transform="translate(0 0.195)">
    <g id="undraw_personal_notebook_re_d7dc" transform="translate(64.783 50.842)">
      <path id="Path_74" data-name="Path 74" d="M316.7,220.586H223.126V348.318H316.7a1.256,1.256,0,0,0,1.267-1.244V221.83a1.256,1.256,0,0,0-1.267-1.244Zm-88.29,124.207a2.281,2.281,0,1,1,2.323-2.281A2.3,2.3,0,0,1,228.406,344.793Zm0-11.612a2.281,2.281,0,1,1,2.323-2.281,2.3,2.3,0,0,1-2.323,2.281Zm0-11.612a2.281,2.281,0,1,1,2.323-2.281,2.3,2.3,0,0,1-2.323,2.281Zm0-11.612a2.281,2.281,0,1,1,2.323-2.281,2.3,2.3,0,0,1-2.323,2.281Zm0-11.612a2.281,2.281,0,1,1,2.323-2.281,2.3,2.3,0,0,1-2.323,2.281Zm0-11.612a2.281,2.281,0,1,1,2.323-2.281,2.3,2.3,0,0,1-2.323,2.281Zm0-11.612a2.281,2.281,0,1,1,2.323-2.281,2.3,2.3,0,0,1-2.323,2.281Zm0-11.612a2.281,2.281,0,1,1,2.323-2.281,2.3,2.3,0,0,1-2.323,2.281Zm0-11.612a2.281,2.281,0,1,1,2.323-2.281,2.3,2.3,0,0,1-2.323,2.281Zm0-11.612A2.281,2.281,0,1,1,230.73,238a2.3,2.3,0,0,1-2.323,2.281Zm0-11.612a2.281,2.281,0,1,1,2.323-2.281A2.3,2.3,0,0,1,228.406,228.673Z" transform="translate(-217.113 -220.586)" fill="#098aff"/>
      <path id="Path_75" data-name="Path 75" d="M208.9,239.413c-.616,0-6.013-.029-6.013-1.037s5.4-1.037,6.013-1.037v.415c-3.179,0-5.241.356-5.573.622.332.266,2.393.622,5.573.622s5.232-.354,5.571-.62a6.923,6.923,0,0,0-2.588-.505l.036-.413c2.995.259,2.995.737,2.995.917C214.909,239.384,209.511,239.413,208.9,239.413Z" transform="translate(-202.882 -232.363)" fill="#2f2e41"/>
      <path id="Path_76" data-name="Path 76" d="M208.9,277.8c-.616,0-6.013-.029-6.013-1.037s5.4-1.037,6.013-1.037v.415c-3.179,0-5.241.356-5.573.622.332.266,2.393.622,5.573.622s5.232-.354,5.571-.62a6.925,6.925,0,0,0-2.588-.505l.036-.413c2.995.259,2.995.737,2.995.917C214.909,277.776,209.511,277.8,208.9,277.8Z" transform="translate(-202.882 -259.35)" fill="#2f2e41"/>
      <path id="Path_77" data-name="Path 77" d="M208.9,316.9c-.616,0-6.013-.029-6.013-1.037s5.4-1.037,6.013-1.037v.415c-3.179,0-5.241.356-5.573.622.332.266,2.393.622,5.573.622s5.232-.354,5.571-.62a6.924,6.924,0,0,0-2.588-.505l.036-.413c2.995.259,2.995.737,2.995.917C214.909,316.867,209.511,316.9,208.9,316.9Z" transform="translate(-202.882 -286.829)" fill="#2f2e41"/>
      <path id="Path_78" data-name="Path 78" d="M208.9,355.987c-.616,0-6.013-.029-6.013-1.037s5.4-1.037,6.013-1.037v.415c-3.179,0-5.241.356-5.573.622.332.266,2.393.622,5.573.622s5.232-.354,5.571-.62a6.924,6.924,0,0,0-2.588-.505l.036-.413c2.995.259,2.995.737,2.995.917C214.909,355.958,209.511,355.987,208.9,355.987Z" transform="translate(-202.882 -314.308)" fill="#2f2e41"/>
      <path id="Path_79" data-name="Path 79" d="M208.9,395.078c-.616,0-6.013-.029-6.013-1.037S208.28,393,208.9,393v.415c-3.179,0-5.241.356-5.573.622.332.266,2.393.622,5.573.622s5.232-.354,5.571-.62a6.924,6.924,0,0,0-2.588-.505l.036-.413c2.995.259,2.995.737,2.995.917C214.909,395.049,209.511,395.078,208.9,395.078Z" transform="translate(-202.882 -341.787)" fill="#2f2e41"/>
      <path id="Path_80" data-name="Path 80" d="M208.9,434.169c-.616,0-6.013-.029-6.013-1.037s5.4-1.037,6.013-1.037v.415c-3.179,0-5.241.356-5.573.622.332.266,2.393.622,5.573.622s5.232-.354,5.571-.62a6.922,6.922,0,0,0-2.588-.505l.036-.413c2.995.259,2.995.737,2.995.917C214.909,434.14,209.511,434.169,208.9,434.169Z" transform="translate(-202.882 -369.266)" fill="#2f2e41"/>
      <path id="Path_81" data-name="Path 81" d="M208.9,473.26c-.616,0-6.013-.029-6.013-1.037s5.4-1.037,6.013-1.037v.415c-3.179,0-5.241.356-5.573.622.332.266,2.393.622,5.573.622s5.232-.354,5.571-.62a6.922,6.922,0,0,0-2.588-.505l.036-.413c2.995.259,2.995.737,2.995.917C214.909,473.231,209.511,473.26,208.9,473.26Z" transform="translate(-202.882 -396.745)" fill="#2f2e41"/>
      <path id="Path_82" data-name="Path 82" d="M208.9,512.351c-.616,0-6.013-.029-6.013-1.037s5.4-1.037,6.013-1.037v.415c-3.179,0-5.241.356-5.573.622.332.266,2.393.622,5.573.622s5.232-.354,5.571-.62a6.923,6.923,0,0,0-2.588-.505l.036-.413c2.995.259,2.995.737,2.995.917C214.909,512.322,209.511,512.351,208.9,512.351Z" transform="translate(-202.882 -424.224)" fill="#2f2e41"/>
      <path id="Path_83" data-name="Path 83" d="M208.9,551.442c-.616,0-6.013-.029-6.013-1.037s5.4-1.037,6.013-1.037v.415c-3.179,0-5.241.356-5.573.622.332.266,2.393.622,5.573.622s5.232-.354,5.571-.62a6.922,6.922,0,0,0-2.588-.505l.036-.413c2.995.259,2.995.737,2.995.917C214.909,551.413,209.511,551.442,208.9,551.442Z" transform="translate(-202.882 -451.703)" fill="#2f2e41"/>
      <path id="Path_84" data-name="Path 84" d="M208.9,590.533c-.616,0-6.013-.029-6.013-1.037s5.4-1.037,6.013-1.037v.415c-3.179,0-5.241.356-5.573.622.332.266,2.393.622,5.573.622s5.232-.354,5.571-.62a6.924,6.924,0,0,0-2.588-.505l.036-.413c2.995.259,2.995.737,2.995.917C214.909,590.5,209.511,590.533,208.9,590.533Z" transform="translate(-202.882 -479.182)" fill="#2f2e41"/>
      <path id="Path_85" data-name="Path 85" d="M208.9,629.624c-.616,0-6.013-.029-6.013-1.037s5.4-1.037,6.013-1.037v.415c-3.179,0-5.241.356-5.573.622.332.266,2.393.622,5.573.622s5.232-.354,5.571-.62a6.926,6.926,0,0,0-2.588-.505l.036-.413c2.995.259,2.995.737,2.995.917C214.909,629.595,209.511,629.624,208.9,629.624Z" transform="translate(-202.882 -506.661)" fill="#2f2e41"/>
      <path id="Path_86" data-name="Path 86" d="M358.047,336.4H312.428a1.349,1.349,0,0,1-1.348-1.348V317.217a1.349,1.349,0,0,1,1.348-1.348h45.619a1.349,1.349,0,0,1,1.348,1.348V335.05A1.349,1.349,0,0,1,358.047,336.4Z" transform="translate(-277.843 -287.565)" fill="#fff"/>
      <path id="Path_87" data-name="Path 87" d="M382.017,331.555H370.4a1.037,1.037,0,0,1,0-2.074h11.612a1.037,1.037,0,0,1,0,2.074Z" transform="translate(-318.909 -297.134)" fill="#c4e3ff"/>
      <path id="Path_88" data-name="Path 88" d="M373.233,349.007H348.764a1.037,1.037,0,0,1,0-2.074h24.468a1.037,1.037,0,1,1,0,2.074Z" transform="translate(-303.673 -309.402)" fill="#c4e3ff"/>
      <path id="Path_89" data-name="Path 89" d="M373.233,366.458H348.764a1.037,1.037,0,0,1,0-2.074h24.468a1.037,1.037,0,1,1,0,2.074Z" transform="translate(-303.673 -321.669)" fill="#c4e3ff"/>
    </g>
    <g id="Ellipse_51" data-name="Ellipse 51" transform="translate(0 -0.195)" fill="none" stroke="#707070" stroke-width="2" stroke-dasharray="9">
      <circle cx="115" cy="115" r="115" stroke="none"/>
      <circle cx="115" cy="115" r="114" fill="none"/>
    </g>
  </g>
</svg>
