<svg xmlns="http://www.w3.org/2000/svg" width="230" height="230" viewBox="0 0 230 230">
  <g id="Group_93" data-name="Group 93" transform="translate(0.39 0.195)">
    <g id="Group_77" data-name="Group 77" transform="translate(51.558 42.436)">
      <path id="Path_172" data-name="Path 172" d="M436.454,394.758a2.274,2.274,0,0,1-1.121-.3L370.5,357.807a2.288,2.288,0,0,1-.864-3.114l51.064-90.32a2.284,2.284,0,0,1,3.114-.865l64.832,36.654a2.288,2.288,0,0,1,.865,3.113L438.446,393.6a2.271,2.271,0,0,1-1.378,1.077,2.3,2.3,0,0,1-.615.084Z" transform="translate(-363.31 -249.476)" fill="#c4e3ff"/>
      <rect id="Rectangle_274" data-name="Rectangle 274" width="0.529" height="78.711" transform="matrix(0.492, -0.871, 0.871, 0.492, 55.321, 18.897)" fill="#fff"/>
      <rect id="Rectangle_275" data-name="Rectangle 275" width="0.529" height="78.711" transform="matrix(0.492, -0.871, 0.871, 0.492, 50.631, 27.192)" fill="#fff"/>
      <rect id="Rectangle_276" data-name="Rectangle 276" width="0.529" height="78.711" transform="matrix(0.492, -0.871, 0.871, 0.492, 45.942, 35.486)" fill="#fff"/>
      <rect id="Rectangle_277" data-name="Rectangle 277" width="0.529" height="78.711" transform="matrix(0.492, -0.871, 0.871, 0.492, 41.252, 43.781)" fill="#fff"/>
      <rect id="Rectangle_278" data-name="Rectangle 278" width="0.529" height="78.711" transform="matrix(0.492, -0.871, 0.871, 0.492, 36.563, 52.076)" fill="#fff"/>
      <rect id="Rectangle_279" data-name="Rectangle 279" width="0.529" height="78.711" transform="matrix(0.492, -0.871, 0.871, 0.492, 31.873, 60.37)" fill="#fff"/>
      <rect id="Rectangle_280" data-name="Rectangle 280" width="0.529" height="78.711" transform="matrix(0.492, -0.871, 0.871, 0.492, 27.184, 68.665)" fill="#fff"/>
      <rect id="Rectangle_281" data-name="Rectangle 281" width="0.529" height="78.711" transform="matrix(0.492, -0.871, 0.871, 0.492, 22.494, 76.959)" fill="#fff"/>
      <rect id="Rectangle_282" data-name="Rectangle 282" width="0.529" height="78.711" transform="matrix(0.492, -0.871, 0.871, 0.492, 17.805, 85.254)" fill="#fff"/>
      <rect id="Rectangle_283" data-name="Rectangle 283" width="0.529" height="78.711" transform="matrix(0.492, -0.871, 0.871, 0.492, 13.115, 93.549)" fill="#fff"/>
      <rect id="Rectangle_284" data-name="Rectangle 284" width="0.529" height="78.711" transform="matrix(0.492, -0.871, 0.871, 0.492, 8.426, 101.843)" fill="#fff"/>
      <path id="Path_173" data-name="Path 173" d="M418.454,353.758a2.275,2.275,0,0,1-1.121-.3L352.5,316.807a2.288,2.288,0,0,1-.864-3.114l51.064-90.32a2.284,2.284,0,0,1,3.113-.864l64.832,36.654a2.288,2.288,0,0,1,.865,3.114L420.446,352.6a2.27,2.27,0,0,1-1.378,1.077A2.3,2.3,0,0,1,418.454,353.758Z" transform="translate(-351.341 -222.213)" fill="#098aff"/>
      <rect id="Rectangle_285" data-name="Rectangle 285" width="0.529" height="78.711" transform="matrix(0.492, -0.871, 0.871, 0.492, 49.29, 5.16)" fill="#e6e6e6"/>
      <rect id="Rectangle_286" data-name="Rectangle 286" width="0.529" height="78.711" transform="matrix(0.492, -0.871, 0.871, 0.492, 44.6, 13.454)" fill="#e6e6e6"/>
      <rect id="Rectangle_287" data-name="Rectangle 287" width="0.529" height="78.711" transform="matrix(0.492, -0.871, 0.871, 0.492, 39.911, 21.749)" fill="#e6e6e6"/>
      <rect id="Rectangle_288" data-name="Rectangle 288" width="0.529" height="78.711" transform="matrix(0.492, -0.871, 0.871, 0.492, 35.221, 30.044)" fill="#e6e6e6"/>
      <rect id="Rectangle_289" data-name="Rectangle 289" width="0.529" height="78.711" transform="matrix(0.492, -0.871, 0.871, 0.492, 30.532, 38.338)" fill="#e6e6e6"/>
      <rect id="Rectangle_290" data-name="Rectangle 290" width="0.529" height="78.711" transform="matrix(0.492, -0.871, 0.871, 0.492, 25.842, 46.633)" fill="#e6e6e6"/>
      <rect id="Rectangle_291" data-name="Rectangle 291" width="0.529" height="78.711" transform="matrix(0.492, -0.871, 0.871, 0.492, 21.153, 54.928)" fill="#e6e6e6"/>
      <rect id="Rectangle_292" data-name="Rectangle 292" width="0.529" height="78.711" transform="matrix(0.492, -0.871, 0.871, 0.492, 16.463, 63.222)" fill="#e6e6e6"/>
      <rect id="Rectangle_293" data-name="Rectangle 293" width="0.529" height="78.711" transform="matrix(0.492, -0.871, 0.871, 0.492, 11.774, 71.517)" fill="#e6e6e6"/>
      <rect id="Rectangle_294" data-name="Rectangle 294" width="0.529" height="78.711" transform="matrix(0.492, -0.871, 0.871, 0.492, 7.084, 79.812)" fill="#e6e6e6"/>
      <rect id="Rectangle_295" data-name="Rectangle 295" width="0.529" height="78.711" transform="matrix(0.492, -0.871, 0.871, 0.492, 2.395, 88.106)" fill="#e6e6e6"/>
    </g>
    <g id="Ellipse_53" data-name="Ellipse 53" transform="translate(-0.39 -0.195)" fill="none" stroke="#707070" stroke-width="2" stroke-dasharray="9">
      <circle cx="115" cy="115" r="115" stroke="none"/>
      <circle cx="115" cy="115" r="114" fill="none"/>
    </g>
  </g>
</svg>
