<svg width="631" height="412" viewBox="0 0 631 412" fill="none" xmlns="http://www.w3.org/2000/svg">
<path d="M362.391 129.131C357.239 63.3945 330.896 32.0742 347.764 12.4329C363.921 -6.38107 409.434 -2.49462 438.663 15.5587C517.499 64.2529 546.382 258.329 444.931 353.15C348.527 443.254 165.822 414.396 125.219 340.647C115.745 323.439 108.219 293.273 122.085 275.004C156.509 229.647 281.669 311.8 337.316 260.417C370.294 229.965 365.219 165.207 362.391 129.131Z" fill="#002A5B"/>
<path d="M302.127 96.4728C304.042 97.3512 305.538 98.94 306.296 100.901C307.054 102.863 307.015 105.041 306.186 106.974C306.012 107.365 305.805 107.74 305.569 108.096L322.49 130.628L314.046 143.213L294.212 109.848C292.807 108.755 291.804 107.229 291.36 105.508C290.916 103.787 291.056 101.968 291.757 100.334C292.165 99.4084 292.753 98.5719 293.485 97.8725C294.217 97.173 295.081 96.6243 296.026 96.2575C296.971 95.8908 297.979 95.7133 298.993 95.7352C300.007 95.7571 301.006 95.9779 301.934 96.385C301.999 96.4133 302.063 96.4426 302.127 96.4728Z" fill="#FFB6B6"/>
<path d="M302.141 135.321C301.033 136.301 304.105 137.509 307.355 135.603C308.284 135.05 308.682 134.821 308.786 134.967C309.047 135.332 307.522 138.02 307.929 143.99C308.18 147.554 314.115 154.254 320.854 160.787C329.964 169.622 340.559 178.145 340.559 178.145L344.278 175.176L383.281 143.99L389.863 134.905C389.261 131.317 388.355 127.786 387.157 124.35C385.507 119.593 383.545 114.95 381.285 110.45C380.074 108.001 378.83 105.668 377.639 103.521L356.743 126.486L339.232 145.72C339.232 145.72 334.133 137.53 330.184 135.301C329.68 134.98 329.107 134.783 328.512 134.728C324.521 134.54 324.28 132.373 328.909 127.653C333.538 122.933 327.697 127.34 323.581 126.069C319.464 124.798 323.58 126.069 322.713 122.891C321.846 119.713 310.301 113.336 310.301 113.336L309.82 113.763L301.096 121.443L298.599 123.641C298.599 123.641 301.326 131.102 302.078 132.675C302.831 134.248 303.238 134.332 302.141 135.321Z" fill="#2188FF"/>
<path d="M72.1601 280.064L71.735 268.571L115.984 261.466L116.612 278.428L72.1601 280.064Z" fill="#FFB6B6"/>
<path d="M80.1925 283.524L80.6121 265.123L72.7237 265.413L59.9886 248.401C59.3597 247.561 58.4779 246.943 57.472 246.638C56.4661 246.333 55.3888 246.356 54.3972 246.705C53.4057 247.054 52.5519 247.71 51.9605 248.577C51.3691 249.444 51.071 250.476 51.1098 251.524L51.9186 273.384L59.8608 276.865L52.1124 278.623L52.4174 286.865L80.1925 283.524Z" fill="#282828"/>
<path d="M321.201 284.539L181.047 288.083C181.047 288.083 120.523 291.569 106.323 282.357L91.3484 280.471L90.5368 258.535C90.5368 258.535 99.6938 258.603 104.959 256.157C110.223 253.71 106.564 250.717 111.584 253.66C116.603 256.603 116.073 256.957 119.954 255.605C123.835 254.252 301.803 227.2 301.803 227.2L321.201 284.539Z" fill="#282828"/>
<path d="M136.515 275.02L128.364 266.883L155.958 231.661L167.987 243.671L136.515 275.02Z" fill="#FFB6B6"/>
<path d="M144.763 267.941L132.521 254.166L126.936 259.729L105.998 255.896C104.964 255.707 103.896 255.852 102.95 256.31C102.005 256.769 101.231 257.517 100.742 258.445C100.253 259.373 100.074 260.433 100.232 261.47C100.39 262.506 100.875 263.466 101.618 264.207L117.12 279.684L125.316 276.849L120.835 283.393L126.679 289.229L144.763 267.941Z" fill="#282828"/>
<path d="M376.496 207.992L375.102 240.292C373.462 278.316 331.472 301.33 298.911 281.476C298.311 281.11 297.709 280.731 297.105 280.339C297.105 280.339 284.761 277.033 285.136 271.798C285.511 266.563 282.495 264.015 279.827 265.443C277.158 266.87 242.217 217.419 242.217 217.419C242.217 217.419 169.622 253.531 153.607 262.033C153.607 262.033 138.55 238.554 139.642 238.8C140.733 239.046 229.45 177.122 229.45 177.122C229.45 177.122 243.904 162.535 261.832 172.166C262.206 173.581 261.886 173.631 261.886 173.631L321.111 221.757L329.479 205.908L376.496 207.992Z" fill="#282828"/>
<path d="M320.655 167.611C320.768 169.104 320.98 170.586 321.292 172.05C321.719 174.169 322.407 176.227 323.34 178.177C323.34 178.177 323.34 180.354 327.519 187.648C331.699 194.942 326.475 191.816 323.34 197.234C320.206 202.642 323.34 200.152 326.819 203.632C327.821 204.644 328.533 205.906 328.88 207.286C329.227 208.666 329.198 210.113 328.794 211.477C328.794 211.477 373.679 211.509 382.038 208.383C390.396 205.257 392.298 187.648 384.807 185.908C377.326 184.168 387.074 182.438 391.472 178.427C395.871 174.415 387.074 167.851 387.074 167.851C387.074 167.851 390.699 161.61 390.396 140.656C390.354 138.729 390.175 136.807 389.863 134.905C389.261 131.317 388.356 127.786 387.157 124.35C385.507 119.593 383.546 114.95 381.286 110.45C380.074 108.002 378.83 105.668 377.639 103.521C377.451 103.188 377.274 102.865 377.085 102.542C374.818 98.5407 372.749 95.269 371.381 93.1747C370.325 91.5493 369.688 90.6323 369.688 90.6323L362.082 77.4412L336.693 89.309L338.135 108.721L333.757 123.36L331.741 130.101L330.184 135.301L327.781 143.355C327.781 143.355 328.439 143.386 327.655 144.459C324.047 149.244 321.707 154.86 320.854 160.787C320.553 163.049 320.486 165.336 320.655 167.611V167.611Z" fill="#2188FF"/>
<path d="M247.335 169.703L247.811 169.55L308.579 150.035L286.186 76.7741C285.74 75.3152 284.968 73.9763 283.928 72.8583C282.888 71.7403 281.607 70.8724 280.181 70.3199C278.756 69.7675 277.223 69.5449 275.699 69.669C274.175 69.7932 272.698 70.2607 271.382 71.0365L232.549 93.9166C229.475 95.7257 227.136 98.5546 225.942 101.909C224.747 105.263 224.772 108.929 226.013 112.267L247.335 169.703Z" fill="#2F2E41"/>
<path d="M247.088 174.361L308.344 154.689L285.952 81.4279C285.506 79.9691 284.734 78.6302 283.694 77.5122C282.653 76.3942 281.372 75.5262 279.947 74.9738C278.521 74.4213 276.989 74.1988 275.464 74.3229C273.94 74.447 272.464 74.9146 271.147 75.6903L230.461 95.9484C224.348 99.5488 224.491 108.868 227.329 116.514L247.088 174.361Z" fill="#2188FF"/>
<path d="M253.221 179.663C254.631 180.457 256.192 180.949 257.804 181.109C259.415 181.269 261.043 181.093 262.583 180.592L301.736 168.018C304.74 167.039 307.241 164.928 308.705 162.135C310.169 159.342 310.48 156.088 309.572 153.07L289.942 88.8474C289.55 87.5643 288.905 86.3723 288.044 85.3412C287.184 84.31 286.126 83.4606 284.932 82.8426C283.738 82.2247 282.433 81.8507 281.092 81.7425C279.752 81.6344 278.403 81.7943 277.125 82.2129L236.55 95.4989C234.616 96.1318 232.83 97.1447 231.296 98.4778C229.762 99.8108 228.511 101.437 227.617 103.26C226.724 105.083 226.206 107.066 226.094 109.093C225.982 111.119 226.278 113.147 226.966 115.057L247.954 173.41C248.896 176.059 250.767 178.28 253.221 179.663V179.663Z" fill="#002A5B"/>
<path d="M338.128 77.6664C322.64 77.6664 310.085 65.1453 310.085 49.6996C310.085 34.254 322.64 21.7328 338.128 21.7328C353.616 21.7328 366.172 34.254 366.172 49.6996C366.172 65.1453 353.616 77.6664 338.128 77.6664Z" fill="#FFB6B6"/>
<path d="M432.959 78.0877C430.385 83.0625 426.166 86.9965 421.015 89.2223C418.96 90.1561 416.799 90.8382 414.579 91.2537C413.952 88.7722 412.947 86.4011 411.601 84.2226C412.049 86.678 412.049 89.1941 411.601 91.6496C408.219 91.9255 404.816 91.5043 401.605 90.4122C398.451 89.3425 395.59 87.5544 393.25 85.1899C390.91 82.8255 389.154 79.9496 388.122 76.7906C385.888 69.3774 388.295 61.4596 388.484 53.7218C388.679 45.9831 384.995 36.7273 377.291 35.7698C371.425 35.0394 372.15 35.6065 367.935 39.7395C373.831 46.2717 359.456 75.2031 351.743 73.9248C347.382 73.202 344.173 69.7492 343.31 69.8689C338.894 80.6555 352.179 95.9537 341.642 100.976L342.424 99.9439C347.939 90.8572 331.619 75.5099 337.135 66.4231C338.672 63.8811 340.271 60.9009 339.32 58.0889C338.417 55.4153 333.844 54.5691 332.879 57.0025C334.448 51.4251 330.07 44.8786 324.255 44.3094C319.089 43.8011 319.387 45.2695 314.461 46.6093C313.832 44.4933 312.925 42.4694 311.764 40.5903C312.157 42.7341 312.205 44.9267 311.907 47.0857C310.131 47.2971 308.334 46.9178 306.796 46.0067C302.247 43.2873 302.112 36.2682 305.237 31.9961C308.367 27.7233 313.61 25.6136 318.669 24.0172C318.715 13.3488 347.5 8.24163 352.794 18.1603C353.339 10.1293 362.57 4.71935 370.522 6.0836C378.475 7.44786 384.748 13.8068 388.573 20.8946C392.397 27.9767 394.296 35.9068 397.095 43.4505C399.895 50.9942 403.897 58.5162 410.6 62.9921C417.303 67.4622 427.265 67.8682 432.861 62.0743C434.138 64.5482 434.812 67.2872 434.829 70.0694C434.846 72.8515 434.205 75.5985 432.959 78.0877Z" fill="#282828"/>
<path d="M404.184 205.978C403.604 205.516 402.974 205.118 402.307 204.793C391.573 199.465 358.192 185.636 332.092 186.204C281.872 187.295 217.96 242.568 232.835 279.684C244.153 307.927 300.421 323.996 341.495 311.144C399.037 293.14 421.749 219.945 404.184 205.978Z" fill="#002A5B"/>
<path d="M612.668 409.448C629.077 406.36 643.603 332.634 611.317 296.324C600.256 283.883 586.458 278.469 568.104 273.429C462.465 244.426 381.893 272.068 371.066 278.816C360.262 285.55 341.323 387.006 365.542 401.367C379.168 409.448 406.176 413.488 419.558 404.061C439.248 390.19 406.198 354.21 420.909 329.991C437.602 302.509 525.506 293.252 569.577 320.564C616.596 349.705 519.611 426.955 612.668 409.448Z" fill="#F2F2F2"/>
<path d="M502.954 284.097H565.645C581.121 269.306 592.186 255.051 583.327 243.219C583.327 239.817 581.972 236.555 579.561 234.15C577.149 231.745 573.878 230.394 570.468 230.394H498.131C494.721 230.394 491.45 231.745 489.038 234.15C486.626 236.555 485.271 239.817 485.271 243.219C481.899 256.701 487.924 270.329 502.954 284.097Z" fill="#CCCCCC"/>
<path d="M514.212 214.249C514.807 214.277 515.396 214.121 515.899 213.803C516.402 213.485 516.795 213.021 517.025 212.473C517.255 211.926 517.31 211.321 517.183 210.74C517.057 210.16 516.754 209.633 516.317 209.23L516.118 208.441C516.144 208.377 516.171 208.314 516.197 208.251C516.796 206.84 517.801 205.636 519.083 204.792C520.366 203.948 521.871 203.5 523.408 203.506C524.945 203.512 526.446 203.97 527.723 204.824C528.999 205.678 529.994 206.889 530.583 208.305C532.936 213.956 535.931 219.617 536.669 225.592C536.994 228.233 536.857 230.91 536.264 233.505C541.79 221.483 544.66 208.417 544.678 195.192C544.679 191.874 544.494 188.558 544.124 185.26C543.819 182.556 543.394 179.872 542.851 177.207C539.89 162.746 533.53 149.192 524.296 137.658C519.826 135.226 516.211 131.486 513.939 126.942C513.116 125.309 512.534 123.565 512.211 121.766C512.716 121.831 514.113 114.174 513.732 113.704C514.435 112.641 515.693 112.112 516.46 111.075C520.276 105.914 525.535 106.815 528.279 113.828C534.143 116.779 534.2 121.674 530.602 126.381C528.313 129.376 527.998 133.429 525.99 136.635C526.197 136.899 526.412 137.155 526.618 137.419C530.396 142.262 533.688 147.464 536.448 152.948C535.776 146.804 536.578 140.589 538.785 134.814C541.022 129.432 545.215 124.899 548.908 120.246C553.343 114.657 562.439 117.096 563.22 124.181C563.228 124.25 563.235 124.318 563.242 124.387C562.694 124.695 562.157 125.023 561.632 125.369C560.972 125.809 560.46 126.437 560.165 127.172C559.869 127.906 559.802 128.713 559.974 129.485C560.146 130.258 560.547 130.961 561.127 131.502C561.706 132.044 562.435 132.398 563.22 132.518L563.3 132.531C563.105 134.502 562.759 136.456 562.267 138.375C567.004 156.645 556.777 163.299 542.174 163.598C541.851 163.763 541.537 163.927 541.215 164.084C543.988 171.921 545.727 180.083 546.389 188.367C546.764 193.255 546.742 198.164 546.323 203.048L546.348 202.875C547.406 197.444 550.311 192.544 554.572 189.002C560.901 183.817 569.842 181.908 576.67 177.741C577.396 177.276 578.24 177.028 579.102 177.026C579.964 177.024 580.809 177.268 581.537 177.729C582.265 178.19 582.845 178.849 583.21 179.628C583.575 180.407 583.708 181.274 583.595 182.127C583.586 182.188 583.577 182.248 583.567 182.309C582.549 182.722 581.558 183.199 580.6 183.735C580.051 184.044 579.514 184.371 578.989 184.717C578.329 185.157 577.818 185.785 577.522 186.52C577.226 187.254 577.16 188.061 577.332 188.834C577.503 189.606 577.905 190.309 578.484 190.851C579.063 191.392 579.793 191.746 580.577 191.866L580.658 191.879C580.716 191.887 580.765 191.895 580.823 191.904C579.084 196.045 576.643 199.856 573.607 203.171C570.645 219.12 557.923 220.633 544.314 215.989H544.306C542.813 222.46 540.65 228.758 537.851 234.783H514.79C514.708 234.527 514.633 234.263 514.559 234.008C516.693 234.141 518.836 234.014 520.94 233.629C519.229 231.535 517.518 229.425 515.807 227.331C515.769 227.292 515.733 227.251 515.699 227.207C514.832 226.136 513.955 225.073 513.088 224.001L513.087 224C513.041 220.715 513.419 217.438 514.212 214.25L514.212 214.249Z" fill="#CCCCCC"/>
<path d="M435.557 280.747C435.175 281.858 434.449 282.819 433.485 283.492C432.52 284.166 431.367 284.518 430.19 284.497L407.191 283.906C406.005 283.883 404.859 283.478 403.923 282.751C402.987 282.025 402.312 281.016 401.999 279.875L398.744 245.169C397.59 245.69 396.333 245.948 395.065 245.923C392.841 245.867 390.731 244.933 389.198 243.325C387.665 241.718 386.835 239.569 386.891 237.351C386.947 235.133 387.884 233.029 389.496 231.5C391.108 229.971 393.262 229.144 395.486 229.199C395.993 229.198 396.498 229.25 396.993 229.356C397.532 228.774 398.187 228.312 398.916 227.998C399.645 227.685 400.431 227.527 401.225 227.535L436.602 228.446C436.895 228.457 437.187 228.493 437.474 228.554C438.25 228.698 438.986 229.006 439.632 229.458C440.279 229.91 440.82 230.494 441.221 231.172C441.622 231.85 441.873 232.606 441.956 233.388C442.04 234.171 441.954 234.962 441.705 235.709L435.557 280.747ZM398.077 242.812L395.761 234.542C395.498 233.587 395.491 232.579 395.743 231.62C395.631 231.62 395.532 231.567 395.419 231.567C393.832 231.534 392.296 232.131 391.149 233.226C390.001 234.321 389.336 235.825 389.299 237.408C389.262 238.991 389.856 240.525 390.95 241.672C392.045 242.82 393.551 243.487 395.139 243.529C396.165 243.561 397.181 243.313 398.077 242.812Z" fill="#CCCCCC"/>
<path d="M437.474 228.554C436.721 232.852 428.247 235.873 418.058 235.348C408.688 234.917 401.027 231.636 399.624 227.748C400.143 227.595 400.683 227.523 401.225 227.535L436.602 228.446C436.895 228.457 437.187 228.493 437.474 228.554V228.554Z" fill="white"/>
<path d="M268.355 136.56C270.461 136.637 272.454 137.53 273.91 139.05C275.366 140.57 276.17 142.596 276.151 144.698C276.14 145.125 276.094 145.551 276.013 145.97L300.321 160.282L297.378 175.138L266.205 151.942C264.487 151.472 262.972 150.448 261.899 149.03C260.825 147.611 260.253 145.878 260.271 144.101C260.291 143.09 260.51 142.093 260.917 141.166C261.323 140.24 261.908 139.402 262.639 138.701C263.37 138 264.233 137.45 265.177 137.081C266.121 136.713 267.129 136.533 268.143 136.553C268.214 136.555 268.284 136.557 268.355 136.56Z" fill="#FFB6B6"/>
<path d="M288.267 170.679C288.918 169.81 289.197 169.446 289.345 169.546C289.726 169.775 289.359 172.844 292.036 178.194C295.805 185.709 335.321 197.219 335.321 197.219L340.187 188.336L361.587 149.301L368.963 118.012C369.221 116.921 369.347 115.803 369.336 114.683C362.76 110.067 355.776 106.058 348.47 102.705C345.551 104.356 343.326 107 342.201 110.153L327.47 151.344L321.592 167.79C321.592 167.79 311.222 160.396 307.461 161.753C303.706 163.119 302.639 161.204 305.093 155.074C307.548 148.943 303.864 155.254 299.576 155.655C295.28 156.062 299.576 155.655 297.547 153.053C295.517 150.452 282.398 148.988 282.398 148.988L282.119 149.569L277.035 159.999L275.579 162.995C275.579 162.995 280.969 168.828 282.27 169.99C283.576 171.161 283.98 171.08 283.34 172.413C282.709 173.741 286.009 173.681 288.267 170.679Z" fill="#2188FF"/>
</svg>
